HIERARCHY
ROOT hip
{
	OFFSET 0.000000 0.000000 0.000000
	CHANNELS 6 Xposition Yposition Zposition Xrotation Zrotation Yrotation 
	JOINT abdomen
	{
		OFFSET 0.000000 3.422050 0.000000
		CHANNELS 3 Xrotation Zrotation Yrotation 
		JOINT chest
		{
			OFFSET 0.000000 8.486693 -0.684411
			CHANNELS 3 Xrotation Zrotation Yrotation 
			JOINT neck
			{
				OFFSET 0.000000 10.266162 -0.273764
				CHANNELS 3 Xrotation Zrotation Yrotation 
				JOINT head
				{
					OFFSET 0.000000 3.148285 0.000000
					CHANNELS 3 Xrotation Zrotation Yrotation 
					End Site
					{
						OFFSET 0.000000 3.148289 0.000000
					}
				}
			}
			JOINT lCollar
			{
				OFFSET 3.422053 6.707223 -0.821293
				CHANNELS 3 Yrotation Zrotation Xrotation 
				JOINT lShldr
				{
					OFFSET 3.285171 0.000000 0.000000
					CHANNELS 3 Zrotation Yrotation Xrotation 
					JOINT lForeArm
					{
						OFFSET 10.129278 0.000000 0.000000
						CHANNELS 3 Yrotation Zrotation Xrotation 
						JOINT lHand
						{
							OFFSET 8.486692 0.000000 0.000000
							CHANNELS 3 Zrotation Yrotation Xrotation 
							End Site
							{
								OFFSET 4.106464 0.000000 0.000000
							}
						}
					}
				}
			}
			JOINT rCollar
			{
				OFFSET -3.558935 6.707223 -0.821293
				CHANNELS 3 Yrotation Zrotation Xrotation 
				JOINT rShldr
				{
					OFFSET -3.148289 0.000000 0.000000
					CHANNELS 3 Zrotation Yrotation Xrotation 
					JOINT rForeArm
					{
						OFFSET -10.266159 0.000000 0.000000
						CHANNELS 3 Yrotation Zrotation Xrotation 
						JOINT rHand
						{
							OFFSET -8.349810 0.000000 0.000000
							CHANNELS 3 Zrotation Yrotation Xrotation 
							End Site
							{
								OFFSET -4.106464 0.000000 0.000000
							}
						}
					}
				}
			}
		}
	}
	JOINT lThigh
	{
		OFFSET 5.338403 -1.642589 1.368821
		CHANNELS 3 Xrotation Zrotation Yrotation 
		JOINT lShin
		{
			OFFSET -2.053232 -20.121670 0.000000
			CHANNELS 3 Xrotation Zrotation Yrotation 
			JOINT lFoot
			{
				OFFSET 0.000000 -19.300380 -1.231939
				CHANNELS 3 Xrotation Yrotation Zrotation 
				End Site
				{
					OFFSET 0.000000 -2.463878 4.653993
				}
			}
		}
	}
	JOINT rThigh
	{
		OFFSET -5.338403 -1.642589 1.368821
		CHANNELS 3 Xrotation Zrotation Yrotation 
		JOINT rShin
		{
			OFFSET 2.053232 -20.121670 0.000000
			CHANNELS 3 Xrotation Zrotation Yrotation 
			JOINT rFoot
			{
				OFFSET 0.000000 -19.300380 -1.231939
				CHANNELS 3 Xrotation Yrotation Zrotation 
				End Site
				{
					OFFSET 0.000000 -2.463878 4.653993
				}
			}
		}
	}
}
MOTION
Frames: 18
Frame Time: 0.049989
0.000000 43.528500 0.000000 0.000000 0.000000 0.000000 0.000000 0.000000 0.000000 0.000000 0.000000 0.000000 0.000000 0.000000 0.000000 0.000000 0.000000 0.000000 0.000000 0.000000 0.000000 0.000000 0.000000 0.000000 0.000000 0.000000 0.000000 0.000000 0.000000 0.000000 0.000000 0.000000 0.000000 0.000000 0.000000 0.000000 0.000000 0.000000 0.000000 0.000000 0.000000 0.000000 0.000000 0.000000 0.000000 0.000000 0.000000 0.000000 0.000000 0.000000 0.000000 0.000000 0.000000 0.000000 0.000000 0.000000 0.000000 0.000000 0.000000 0.000000 
0.000000 5.840584 0.000000 -90.001877 0.000000 0.000000 0.261402 0.541587 -0.556560 1.740723 6.770503 1.618343 2.568918 -0.003198 -0.715418 30.999151 0.000000 0.000000 -0.010062 -8.370779 -0.209368 -1.792563 -36.813660 -11.210523 -83.891052 -19.592854 -55.421028 -44.002182 0.000000 0.000000 8.679903 16.737415 -2.486282 18.216684 22.246973 -10.042473 51.718002 46.503483 -43.209358 43.999180 -0.000538 17.399616 -20.405159 10.797662 0.233442 47.454395 -2.343070 -0.149307 32.509850 -2.573077 0.952554 -20.404957 -10.801742 -0.236303 47.454285 2.341269 0.144693 32.509842 2.568740 -0.954932 
0.000000 5.840584 0.000000 -90.001877 0.000000 0.000000 0.261402 0.541587 -0.556560 1.740723 6.770503 1.618343 5.105322 -0.193863 -1.405481 28.937275 0.000000 0.000000 -0.010062 -8.370779 -0.209368 -2.500281 -37.090916 -10.677644 -84.264099 -19.116343 -54.613522 -43.184170 0.000000 0.000000 8.679904 16.737415 -2.486282 18.832521 21.834869 -10.203012 53.273026 45.403332 -43.047134 43.999180 -0.000538 17.399616 -20.405159 10.797662 0.233442 47.454395 -2.343070 -0.149307 32.509850 -2.573077 0.952554 -20.404959 -10.801743 -0.236303 47.454285 2.341269 0.144693 32.509842 2.568740 -0.954932 
0.000000 5.840584 0.000000 -90.001884 0.000000 0.000000 0.261402 0.541587 -0.556560 1.740723 6.770503 1.618343 7.659018 -0.354651 -2.107497 26.867941 0.000000 0.000000 -0.010062 -8.370779 -0.209368 -3.214676 -37.363213 -10.137892 -84.644585 -18.643076 -53.801983 -42.364498 0.000000 0.000000 8.679903 16.737417 -2.486282 19.449062 21.423590 -10.368178 54.815975 44.297295 -42.844463 43.999184 -0.000538 17.399618 -20.405161 10.797664 0.233442 47.454399 -2.343070 -0.149307 32.509850 -2.573077 0.952554 -20.404957 -10.801743 -0.236303 47.454288 2.341269 0.144693 32.509842 2.568740 -0.954932 
0.000000 5.840584 0.000000 -90.001877 0.000000 0.000000 0.261402 0.541587 -0.556560 1.740723 6.770503 1.618343 10.227072 -0.484545 -2.819480 24.792473 0.000000 0.000000 -0.010062 -8.370779 -0.209368 -3.935706 -37.630405 -9.591299 -85.032425 -18.173277 -52.986435 -41.543240 0.000000 0.000000 8.679903 16.737415 -2.486282 20.066315 21.013220 -10.537937 56.348042 43.186752 -42.602661 43.999180 -0.000538 17.399614 -20.405157 10.797661 0.233442 47.454391 -2.343069 -0.149307 32.509846 -2.573077 0.952554 -20.404955 -10.801742 -0.236303 47.454281 2.341269 0.144693 32.509838 2.568740 -0.954932 
0.000000 5.840584 0.000000 -90.001877 0.000000 0.000000 0.261402 0.541587 -0.556560 1.740723 6.770503 1.618343 12.806425 -0.582711 -3.539334 22.712200 0.000000 0.000000 -0.010062 -8.370779 -0.209368 -4.663321 -37.892376 -9.037913 -85.427620 -17.707205 -52.166962 -40.720478 0.000000 0.000000 8.679903 16.737413 -2.486281 20.684282 20.603849 -10.712260 57.870369 42.073170 -42.323044 43.999180 -0.000538 17.399616 -20.405157 10.797661 0.233442 47.454395 -2.343070 -0.149307 32.509846 -2.573077 0.952554 -20.404957 -10.801742 -0.236303 47.454285 2.341269 0.144693 32.509842 2.568740 -0.954932 
0.000000 5.840584 0.000000 -90.001877 0.000000 0.000000 0.261402 0.541587 -0.556560 1.740723 6.770503 1.618343 15.393925 -0.648512 -4.264875 20.628479 0.000000 0.000000 -0.010062 -8.370779 -0.209368 -5.397466 -38.149036 -8.477799 -85.830032 -17.245073 -51.343544 -39.896286 0.000000 0.000000 8.679903 16.737415 -2.486282 21.302963 20.195574 -10.891115 59.384007 40.958012 -42.006908 43.999180 -0.000538 17.399616 -20.405159 10.797662 0.233442 47.454395 -2.343070 -0.149307 32.509850 -2.573077 0.952554 -20.404957 -10.801742 -0.236303 47.454285 2.341269 0.144693 32.509842 2.568740 -0.954932 
0.000000 5.840584 0.000000 -90.001877 0.000000 0.000000 0.261402 0.541587 -0.556560 1.740723 6.770503 1.618343 17.986340 -0.681516 -4.993855 18.542686 0.000000 0.000000 -0.010062 -8.370779 -0.209368 -6.138077 -38.400227 -7.911013 -86.239609 -16.787138 -50.516281 -39.070744 0.000000 0.000000 8.679903 16.737415 -2.486282 21.922386 19.788502 -11.074482 60.889858 39.842739 -41.655457 43.999180 -0.000538 17.399616 -20.405159 10.797662 0.233442 47.454395 -2.343070 -0.149307 32.509850 -2.573077 0.952554 -20.404957 -10.801742 -0.236303 47.454285 2.341269 0.144693 32.509842 2.568740 -0.954932 
0.000000 5.840584 0.000000 -90.001884 0.000000 0.000000 0.261402 0.541587 -0.556560 1.740723 6.770503 1.618343 20.580395 -0.681505 -5.723985 16.456211 0.000000 0.000000 -0.010062 -8.370779 -0.209368 -6.885080 -38.645840 -7.337628 -86.656258 -16.333618 -49.685196 -38.243961 0.000000 0.000000 8.679903 16.737415 -2.486282 22.542536 19.382713 -11.262320 62.388794 38.728855 -41.269928 43.999187 -0.000538 17.399618 -20.405159 10.797662 0.233442 47.454395 -2.343070 -0.149307 32.509850 -2.573077 0.952554 -20.404959 -10.801743 -0.236303 47.454285 2.341269 0.144693 32.509842 2.568740 -0.954932 
0.000000 5.840584 0.000000 -90.001877 0.000000 0.000000 0.261402 0.541587 -0.556560 1.740723 6.770502 1.618343 23.172813 -0.648479 -6.452964 14.370418 0.000000 0.000000 -0.010062 -8.370779 -0.209368 -7.638393 -38.885765 -6.757728 -87.079887 -15.884768 -48.850380 -37.416000 0.000000 0.000000 8.679901 16.737413 -2.486281 23.163420 18.978304 -11.454592 63.881550 37.617863 -40.851517 43.999180 -0.000538 17.399616 -20.405159 10.797662 0.233442 47.454391 -2.343070 -0.149307 32.509850 -2.573077 0.952554 -20.404957 -10.801742 -0.236303 47.454281 2.341268 0.144693 32.509842 2.568740 -0.954932 
0.000000 5.840584 0.000000 -90.001877 0.000000 0.000000 0.261402 0.541587 -0.556560 1.740723 6.770503 1.618343 25.760311 -0.582657 -7.178504 12.286701 0.000000 0.000000 -0.010062 -8.370779 -0.209368 -8.397934 -39.119900 -6.171399 -87.510399 -15.440804 -48.011887 -36.586945 0.000000 0.000000 8.679902 16.737415 -2.486282 23.785046 18.575384 -11.651277 65.368797 36.511276 -40.401390 43.999180 -0.000538 17.399616 -20.405159 10.797661 0.233442 47.454391 -2.343070 -0.149307 32.509846 -2.573077 0.952554 -20.404957 -10.801741 -0.236303 47.454281 2.341269 0.144693 32.509842 2.568740 -0.954932 
0.000000 5.840584 0.000000 -90.001862 0.000000 0.000000 0.261402 0.541587 -0.556560 1.740723 6.770503 1.618343 28.339668 -0.484468 -7.898355 10.206426 0.000000 0.000000 -0.010062 -8.370779 -0.209368 -9.163597 -39.348110 -5.578741 -87.947693 -15.001973 -47.169804 -35.756874 0.000000 0.000000 8.679903 16.737413 -2.486281 24.407402 18.174025 -11.852329 66.851120 35.410599 -39.920723 43.999180 -0.000538 17.399616 -20.405159 10.797662 0.233442 47.454395 -2.343070 -0.149307 32.509850 -2.573077 0.952554 -20.404957 -10.801742 -0.236303 47.454285 2.341269 0.144693 32.509842 2.568740 -0.954932 
0.000000 5.840584 0.000000 -90.001877 0.000000 0.000000 0.261402 0.541587 -0.556560 1.740723 6.770503 1.618343 30.907713 -0.354553 -8.610333 8.130954 0.000000 0.000000 -0.010062 -8.370779 -0.209368 -9.935281 -39.570293 -4.979858 -88.391670 -14.568503 -46.324215 -34.925892 0.000000 0.000000 8.679903 16.737415 -2.486282 25.030499 17.774345 -12.057714 68.329010 34.317352 -39.410671 43.999180 -0.000538 17.399616 -20.405159 10.797662 0.233442 47.454395 -2.343070 -0.149307 32.509850 -2.573077 0.952554 -20.404957 -10.801742 -0.236303 47.454285 2.341269 0.144693 32.509842 2.568740 -0.954932 
0.000000 5.840584 0.000000 -90.001877 0.000000 0.000000 0.261402 0.541587 -0.556560 1.740723 6.770503 1.618343 33.461407 -0.193744 -9.312344 6.061623 0.000000 0.000000 -0.010062 -8.370779 -0.209368 -10.712863 -39.786327 -4.374865 -88.842194 -14.140621 -45.475204 -34.094074 0.000000 0.000000 8.679903 16.737415 -2.486282 25.654327 17.376423 -12.267399 69.802834 33.232990 -38.872356 43.999180 -0.000538 17.399616 -20.405159 10.797662 0.233442 47.454403 -2.343070 -0.149307 32.509850 -2.573077 0.952554 -20.404957 -10.801742 -0.236303 47.454285 2.341269 0.144693 32.509842 2.568740 -0.954932 
0.000000 5.840584 0.000000 -90.001877 0.000000 0.000000 0.261402 0.541587 -0.556560 1.740723 6.770503 1.618343 35.997814 -0.003058 -10.002402 3.999748 0.000000 0.000000 -0.010062 -8.370779 -0.209368 -11.496224 -39.996117 -3.763889 -89.299133 -13.718550 -44.622868 -33.261494 0.000000 0.000000 8.679903 16.737417 -2.486282 26.278883 16.980356 -12.481339 71.272972 32.159004 -38.306957 43.999180 -0.000538 17.399616 -20.405159 10.797662 0.233442 47.454395 -2.343070 -0.149307 32.509850 -2.573077 0.952554 -20.404957 -10.801743 -0.236303 47.454288 2.341269 0.144693 32.509842 2.568740 -0.954932 
0.000000 5.840584 0.000000 -90.001877 0.000000 0.000000 0.261402 0.541587 -0.556560 1.740723 6.770503 1.618343 33.643185 -0.181102 -9.362053 5.914083 0.000000 0.000000 -0.010062 -8.370779 -0.209368 -12.285226 -40.199539 -3.147062 -89.762375 -13.302514 -43.767315 -32.428268 0.000000 0.000000 8.679904 16.737415 -2.486282 26.904165 16.586239 -12.699493 72.739647 31.096830 -37.715595 43.999184 -0.000538 17.399618 -20.405159 10.797662 0.233442 47.454399 -2.343070 -0.149307 32.509850 -2.573077 0.952554 -20.404957 -10.801742 -0.236303 47.454288 2.341269 0.144693 32.509842 2.568740 -0.954932 
0.000000 5.840584 0.000000 -90.001877 0.000000 0.000000 0.261402 0.541587 -0.556560 1.740723 6.770502 1.618343 31.273479 -0.333449 -8.711280 7.834928 0.000000 0.000000 -0.010062 -8.370779 -0.209368 -13.079730 -40.396511 -2.524526 -90.231781 -12.892730 -42.908665 -31.594450 0.000000 0.000000 8.679902 16.737413 -2.486282 27.530159 16.194166 -12.921828 74.203003 30.047871 -37.099407 43.999176 -0.000538 17.399616 -20.405157 10.797662 0.233442 47.454395 -2.343070 -0.149307 32.509850 -2.573077 0.952554 -20.404957 -10.801742 -0.236303 47.454285 2.341269 0.144693 32.509842 2.568740 -0.954932 
0.000000 5.840584 0.000000 -90.001877 0.000000 0.000000 0.261402 0.541587 -0.556560 1.740723 6.770503 1.618343 28.891014 -0.459275 -8.051655 9.761232 0.000000 0.000000 -0.010062 -8.370779 -0.209368 -13.879584 -40.586933 -1.896434 -90.707184 -12.489409 -42.047012 -30.760164 0.000000 0.000000 8.679903 16.737415 -2.486282 28.156858 15.804223 -13.148291 75.663200 29.013506 -36.459568 43.999184 -0.000538 17.399618 -20.405159 10.797662 0.233442 47.454395 -2.343070 -0.149307 32.509850 -2.573077 0.952554 -20.404957 -10.801742 -0.236303 47.454285 2.341269 0.144693 32.509842 2.568740 -0.954932 
